<svg aria-hidden="true" style="position: absolute; width: 0; height: 0; overflow: hidden;" version="1.1" xmlns="http://www.w3.org/2000/svg" xmlns:xlink="http://www.w3.org/1999/xlink">
<defs>
<symbol id="icon-auricular" viewBox="0 0 32 32">
<path d="M16 2c7.719 0 14 6.281 14 14s-6.281 14-14 14-14-6.281-14-14 6.281-14 14-14zM16 0c-8.836 0-16 7.164-16 16s7.164 16 16 16 16-7.164 16-16-7.164-16-16-16v0zM24.92 21.35l-0.090-0.273c-0.211-0.629-0.906-1.285-1.547-1.461l-2.365-0.646c-0.641-0.174-1.555 0.061-2.025 0.531l-0.855 0.855c-3.109-0.842-5.549-3.281-6.389-6.391l0.855-0.855c0.469-0.469 0.703-1.383 0.529-2.025l-0.645-2.365c-0.174-0.641-0.834-1.336-1.463-1.547l-0.27-0.090c-0.631-0.211-1.531 0.002-2 0.473l-1.281 1.281c-0.229 0.227-0.375 0.877-0.375 0.879-0.043 4.066 1.551 7.982 4.426 10.859 2.867 2.867 6.77 4.459 10.822 4.424 0.021 0 0.691-0.143 0.92-0.371l1.281-1.281c0.469-0.467 0.68-1.367 0.471-1.996z"></path>
</symbol>
<symbol id="icon-discord" viewBox="0 0 32 32">
<path fill="#5865f2" style="fill: #111" d="M27.107 5.637c-2.071-0.969-4.286-1.673-6.602-2.075-0.284 0.514-0.617 1.206-0.846 1.756-2.462-0.37-4.9-0.37-7.317 0-0.229-0.55-0.569-1.242-0.856-1.756-2.318 0.401-4.535 1.108-6.607 2.080-4.178 6.314-5.311 12.47-4.744 18.54 2.771 2.069 5.457 3.326 8.097 4.149 0.652-0.897 1.233-1.851 1.734-2.856-0.954-0.362-1.868-0.81-2.731-1.329 0.229-0.17 0.453-0.347 0.669-0.53 5.265 2.463 10.986 2.463 16.189 0 0.219 0.183 0.443 0.36 0.669 0.53-0.866 0.522-1.782 0.969-2.736 1.332 0.501 1.003 1.080 1.959 1.734 2.856 2.643-0.823 5.331-2.080 8.102-4.152 0.664-7.036-1.135-13.136-4.757-18.545zM10.684 20.449c-1.581 0-2.877-1.476-2.877-3.273s1.269-3.275 2.877-3.275c1.608 0 2.905 1.476 2.877 3.275 0.002 1.797-1.268 3.273-2.877 3.273zM21.316 20.449c-1.581 0-2.877-1.476-2.877-3.273s1.268-3.275 2.877-3.275c1.608 0 2.904 1.476 2.877 3.275 0 1.797-1.269 3.273-2.877 3.273z"></path>
</symbol>
<symbol id="icon-email" viewBox="0 0 32 32">
<path d="M31.287 9.869l-4.087-2.725v-7.144h-22.4v7.144l-4.087 2.725c-0.445 0.296-0.713 0.796-0.713 1.331v19.2c0 0.884 0.716 1.6 1.6 1.6h28.8c0.884 0 1.6-0.716 1.6-1.6v-19.2c0-0.535-0.267-1.035-0.713-1.331zM27.2 9.067l2.475 1.65-2.475 1.602v-3.251zM6.4 1.6h19.2v11.753l-9.6 6.212-9.6-6.212v-11.753zM4.8 9.067v3.251l-2.475-1.601 2.475-1.65zM30.4 30.4h-28.8v-18.247l12.927 8.365-11.762 7.61c-0.371 0.241-0.477 0.736-0.237 1.106 0.153 0.238 0.41 0.366 0.672 0.366 0.149 0 0.299-0.042 0.434-0.128l12.366-8.002 12.366 8.002c0.134 0.086 0.284 0.128 0.434 0.128 0.262 0 0.519-0.128 0.673-0.366 0.24-0.37 0.133-0.866-0.237-1.106l-11.762-7.611 12.927-8.364v18.247z"></path>
<path d="M8 3.2h16v1.6h-16v-1.6z"></path>
<path d="M8 6.4h16v1.6h-16v-1.6z"></path>
<path d="M8 9.6h8v1.6h-8v-1.6z"></path>
</symbol>
<symbol id="icon-github" viewBox="0 0 32 32">
<path d="M16 0c-8.835 0-16 7.164-16 16 0 7.069 4.584 13.067 10.943 15.183 0.799 0.148 1.057-0.348 1.057-0.769v-2.979c-4.451 0.968-5.377-1.888-5.377-1.888-0.728-1.849-1.777-2.341-1.777-2.341-1.452-0.993 0.111-0.972 0.111-0.972 1.607 0.112 2.452 1.649 2.452 1.649 1.427 2.445 3.743 1.739 4.656 1.329 0.143-1.033 0.557-1.74 1.016-2.139-3.553-0.407-7.289-1.779-7.289-7.908 0-1.748 0.625-3.175 1.648-4.295-0.165-0.404-0.713-2.032 0.156-4.235 0 0 1.344-0.429 4.401 1.64 1.276-0.355 2.644-0.532 4.004-0.539 1.36 0.007 2.729 0.184 4.008 0.539 3.055-2.069 4.396-1.64 4.396-1.64 0.871 2.204 0.323 3.832 0.157 4.235 1.027 1.12 1.647 2.548 1.647 4.295 0 6.145-3.743 7.499-7.305 7.895 0.573 0.496 1.097 1.469 1.097 2.963v4.391c0 0.425 0.256 0.925 1.068 0.768 6.353-2.119 10.932-8.115 10.932-15.181 0-8.836-7.164-16-16-16z"></path>
</symbol>
<symbol id="icon-linkedin" viewBox="0 0 32 32">
<path d="M25.333 0h-18.667c-3.681 0-6.667 2.985-6.667 6.667v18.667c0 3.681 2.985 6.667 6.667 6.667h18.667c3.683 0 6.667-2.985 6.667-6.667v-18.667c0-3.681-2.984-6.667-6.667-6.667zM10.667 25.333h-4v-14.667h4v14.667zM8.667 8.976c-1.288 0-2.333-1.053-2.333-2.352s1.045-2.352 2.333-2.352 2.333 1.053 2.333 2.352-1.044 2.352-2.333 2.352zM26.667 25.333h-4v-7.472c0-4.491-5.333-4.151-5.333 0v7.472h-4v-14.667h4v2.353c1.861-3.448 9.333-3.703 9.333 3.301v9.012z"></path>
</symbol>
</defs>
</svg>
